<svg width="48" height="48" viewBox="0 0 48 48" fill="none" xmlns="http://www.w3.org/2000/svg">
<g id="fi_5389144" clip-path="url(#clip0_1_974)">
<g id="Group">
<g id="XMLID_16_">
<g id="Group_2">
<path id="Vector" d="M47.9824 22.4476C47.9784 22.3398 47.9744 22.2279 47.9704 22.1201L47.8187 20.5429C47.8386 20.5389 47.8586 20.5349 47.8746 20.5349V20.5309C47.8307 19.9918 47.7748 19.4688 47.7109 18.9576C47.3475 16.0427 45.363 13.595 42.5918 12.6486C37.9998 11.0794 31.6349 9.56999 24.0002 9.6259C16.3655 9.56999 10.0006 11.0794 5.40855 12.6486C2.63738 13.595 0.652838 16.0427 0.289471 18.9576C0.225582 19.4688 0.169679 19.9918 0.125756 20.5309V20.5349C0.141728 20.5349 0.161693 20.5389 0.181658 20.5429L0.0299227 22.1201C0.0259297 22.2279 0.0219367 22.3398 0.0179436 22.4476C-0.0539312 24.7875 0.0978045 26.9198 0.361345 28.8005C0.688775 31.1444 1.79086 33.3007 3.49589 34.9178C4.68581 37.0501 6.98181 38.3758 9.4575 38.3758H24.0002H38.5428C41.0185 38.3758 43.3145 37.0501 44.5045 34.9178C46.2095 33.3007 47.3116 31.1444 47.639 28.8005C47.9025 26.9198 48.0543 24.7875 47.9824 22.4476Z" fill="#F4999A"/>
<path id="Vector_2" d="M24.0001 23.6136C25.2814 23.6136 26.3201 23.0915 26.3201 22.4476C26.3201 21.8036 25.2814 21.2816 24.0001 21.2816C22.7189 21.2816 21.6802 21.8036 21.6802 22.4476C21.6802 23.0915 22.7189 23.6136 24.0001 23.6136Z" fill="#EA728C"/>
<path id="Vector_3" d="M26.3201 22.4476C26.3201 21.8047 25.2819 21.2816 24.0002 21.2816C22.7184 21.2816 21.6802 21.8047 21.6802 22.4476C21.6802 23.0905 22.7184 23.6136 24.0002 23.6136C25.2819 23.6136 26.3201 23.0905 26.3201 22.4476ZM38.9461 21.4853C38.9262 21.9445 38.9022 22.4077 38.8822 22.8669C38.7704 25.2507 37.0934 27.2752 34.7774 27.8143C30.4809 28.8125 26.7514 29.0521 24.0002 29.0521C21.249 29.0521 17.5195 28.8125 13.2229 27.8143C10.907 27.2752 9.22989 25.2507 9.11809 22.8669C9.09812 22.4077 9.07416 21.9445 9.0542 21.4853C11.6018 20.5988 14.0176 20.0079 16.2217 19.6245C19.3004 19.0895 21.9637 18.9497 24.0002 18.9497C26.0366 18.9497 28.7 19.0895 31.7786 19.6245C33.9828 20.0079 36.3986 20.5988 38.9461 21.4853Z" fill="#FEC4B9"/>
<path id="Vector_4" d="M47.8187 20.5428C45.8381 20.9382 44.2409 21.7687 43.0709 23.0105C41.5216 24.6477 41.314 26.3807 41.1303 27.91C40.9906 29.068 40.8708 30.0663 40.2399 30.9966C38.9901 32.8454 36.2428 33.0211 24.0002 33.0211C11.7575 33.0211 9.01027 32.8454 7.76044 30.9966C7.12954 30.0663 7.00975 29.068 6.86999 27.91C6.68631 26.3807 6.47868 24.6477 4.92937 23.0105C3.75941 21.7687 2.16219 20.9382 0.181643 20.5428L0.0299072 22.1201C1.61515 22.4675 2.87695 23.1303 3.79136 24.0967C4.98128 25.3545 5.14101 26.6881 5.30871 28.1017C5.46045 29.3475 5.61618 30.6373 6.45871 31.8871C8.23162 34.4985 11.2943 34.5984 24.0002 34.5984C36.706 34.5984 39.7687 34.4985 41.5416 31.8871C42.3841 30.6373 42.5399 29.3475 42.6916 28.1017C42.8593 26.6881 43.019 25.3545 44.209 24.0967C45.1234 23.1303 46.3852 22.4675 47.9704 22.1201L47.8187 20.5428Z" fill="#EAEBEC"/>
<path id="Vector_5" d="M44.5045 34.9178C43.3145 37.0501 41.0185 38.3758 38.5428 38.3758H24.0002H9.4575C6.98181 38.3758 4.68581 37.0501 3.49589 34.9178C1.79086 33.3006 0.688775 31.1444 0.361345 28.8005C0.0978045 26.9198 -0.0539312 24.7875 0.0179436 22.4475C0.0219367 22.3397 0.0259297 22.2279 0.0299227 22.1201C1.61516 22.4675 2.87696 23.1304 3.79137 24.0967C4.9813 25.3545 5.14102 26.6882 5.30873 28.1017C5.46046 29.3475 5.61619 30.6373 6.45872 31.8871C8.23164 34.4986 11.2943 34.5984 24.0002 34.5984C36.706 34.5984 39.7687 34.4986 41.5416 31.8871C42.3842 30.6373 42.5399 29.3475 42.6916 28.1017C42.8593 26.6882 43.019 25.3545 44.209 24.0967C45.1234 23.1304 46.3852 22.4675 47.9704 22.1201C47.9744 22.2279 47.9784 22.3397 47.9824 22.4475C48.0543 24.7875 47.9025 26.9198 47.639 28.8005C47.3116 31.1444 46.2095 33.3006 44.5045 34.9178Z" fill="#E88090"/>
<path id="Vector_6" d="M38.9461 21.4852C36.3986 20.5988 33.9828 20.0078 31.7786 19.6245C28.7 19.0894 26.0366 18.9497 24.0002 18.9497C21.9637 18.9497 19.3003 19.0894 16.2217 19.6245C14.0175 20.0078 11.6017 20.5988 9.05418 21.4852C9.07415 21.9444 9.0981 22.4076 9.11807 22.8668C9.22988 25.2507 10.907 27.2752 13.2229 27.8142C17.5194 28.8125 21.2489 29.0521 24.0002 29.0521C26.7514 29.0521 30.4809 28.8125 34.7774 27.8142C37.0933 27.2752 38.7704 25.2507 38.8822 22.8668C38.9022 22.4076 38.9262 21.9444 38.9461 21.4852ZM47.8746 20.5309V20.5349C47.8586 20.5349 47.8386 20.5389 47.8187 20.5429C45.8381 20.9382 44.2409 21.7687 43.0709 23.0106C41.5216 24.6477 41.314 26.3807 41.1303 27.91C40.9906 29.068 40.8708 30.0663 40.2399 30.9967C38.99 32.8455 36.2428 33.0211 24.0002 33.0211C11.7575 33.0211 9.01026 32.8455 7.76043 30.9967C7.12953 30.0663 7.00974 29.068 6.86999 27.91C6.68631 26.3807 6.47867 24.6477 4.92937 23.0106C3.7594 21.7687 2.16219 20.9382 0.181635 20.5429C0.16167 20.5389 0.141705 20.5349 0.125732 20.5349V20.5309C0.169656 19.9918 0.225559 19.4688 0.289447 18.9576C0.652814 16.0427 2.63736 13.595 5.40853 12.6486C10.0005 11.0794 16.3654 9.56999 24.0002 9.6259C31.6349 9.56999 37.9998 11.0794 42.5918 12.6486C45.3629 13.595 47.3475 16.0427 47.7109 18.9576C47.7747 19.4688 47.8306 19.9918 47.8746 20.5309Z" fill="#F4999A"/>
</g>
<g id="Group_3">
<g id="Group_4">
<path id="Vector_7" d="M28.2569 22.8469H26.3198C26.099 22.8469 25.9205 22.6681 25.9205 22.4476C25.9205 22.2272 26.099 22.0483 26.3198 22.0483H28.2569C28.4777 22.0483 28.6562 22.2272 28.6562 22.4476C28.6562 22.6681 28.4777 22.8469 28.2569 22.8469Z" fill="#EA728C"/>
</g>
<g id="Group_5">
<path id="Vector_8" d="M31.7791 20.0238C31.7503 20.0238 31.7208 20.0206 31.6912 20.0143C31.476 19.9659 31.3406 19.7523 31.3889 19.5375C31.49 19.0863 31.6249 18.6638 31.8018 18.2469C31.9559 17.8744 32.1444 17.5102 32.378 17.1369C32.495 16.9504 32.7406 16.8929 32.9282 17.0099C33.1151 17.1269 33.1718 17.3733 33.0548 17.5601C32.8456 17.8951 32.6767 18.2206 32.5381 18.5552C32.3792 18.9309 32.2582 19.3083 32.1676 19.7116C32.1268 19.8973 31.9619 20.0238 31.7791 20.0238Z" fill="#E88090"/>
</g>
<g id="Group_6">
<path id="Vector_9" d="M34.0707 20.483C34.0376 20.483 34.0036 20.479 33.9701 20.4702C33.7569 20.4147 33.6287 20.1971 33.6838 19.9835C33.8307 19.4157 34.0256 18.8686 34.2636 18.3579C34.4764 17.9023 34.7276 17.4619 35.0103 17.0474C35.1349 16.8649 35.384 16.8182 35.5653 16.9424C35.7474 17.067 35.7945 17.3153 35.6703 17.4974C35.412 17.8764 35.1816 18.2793 34.9875 18.6953C34.7703 19.1617 34.5918 19.6625 34.4569 20.1835C34.4105 20.3636 34.2484 20.483 34.0707 20.483Z" fill="#E88090"/>
</g>
<g id="Group_7">
<path id="Vector_10" d="M24.0002 29.4514C20.3542 29.4514 16.6978 29.0313 13.1324 28.2028C10.6535 27.6262 8.83906 25.4396 8.71927 22.8857L8.51522 18.5819C8.50564 18.2757 8.39303 16.7352 7.12404 15.774C6.41488 15.233 5.59431 15.096 5.03129 15.0761C4.81087 15.0681 4.63877 14.8832 4.64636 14.6628C4.65435 14.442 4.854 14.2691 5.05924 14.2778C5.73846 14.3022 6.73153 14.4707 7.6072 15.1379C9.12576 16.2871 9.29706 18.0397 9.31303 18.5492L9.51708 22.8493C9.6201 25.0471 11.181 26.929 13.3133 27.4253C20.3255 29.0545 27.675 29.0545 34.6868 27.4253C36.8191 26.929 38.38 25.0471 38.483 22.8481L38.6871 18.5424C38.703 18.0397 38.8747 16.2875 40.3941 15.1371C41.2682 14.4707 42.2616 14.3018 42.9409 14.2778C43.1457 14.2683 43.3462 14.4424 43.3537 14.6628C43.3617 14.8832 43.1892 15.0681 42.9688 15.0761C42.4058 15.096 41.5852 15.233 40.8773 15.7732C39.6067 16.7348 39.4945 18.2757 39.4849 18.5752L39.2808 22.8845C39.161 25.4396 37.3466 27.6262 34.8677 28.2028C31.3027 29.0313 27.6459 29.4514 24.0002 29.4514Z" fill="#E88090"/>
</g>
<g id="Group_8">
<path id="Vector_11" d="M21.6803 22.8469H19.7433C19.5225 22.8469 19.344 22.6681 19.344 22.4476C19.344 22.2272 19.5225 22.0483 19.7433 22.0483H21.6803C21.9011 22.0483 22.0796 22.2272 22.0796 22.4476C22.0796 22.6681 21.9011 22.8469 21.6803 22.8469Z" fill="#EA728C"/>
</g>
<path id="Vector_12" d="M45.6637 28.2995C45.6122 28.0854 45.3989 27.9549 45.1821 28.0044C44.9677 28.0559 44.8355 28.2715 44.887 28.4859C45.1242 29.475 45.3913 31.4659 44.5057 33.714C44.4949 33.7408 44.4837 33.7695 44.4753 33.8007C44.4178 34.0075 44.5376 34.2116 44.7421 34.2766C44.7804 34.289 44.8191 34.295 44.8579 34.295C45.0248 34.295 45.1829 34.186 45.2428 34.0219L45.2596 33.978C46.2139 31.5554 45.9224 29.3804 45.6637 28.2995Z" fill="#F48CA7"/>
<g id="Group_9">
<path id="Vector_13" d="M3.13976 34.3066C2.96487 34.3066 2.80435 34.1908 2.75523 34.0143C2.75204 34.0059 2.73527 33.9628 2.73207 33.954C1.78572 31.5554 2.07722 29.3807 2.33636 28.2998C2.38827 28.0858 2.6015 27.9552 2.81793 28.0047C3.03235 28.0562 3.16452 28.2719 3.11301 28.4863C2.87582 29.4754 2.60869 31.4663 3.48397 33.6852C3.50553 33.7415 3.51631 33.7699 3.52509 33.801C3.58379 34.0135 3.45961 34.2335 3.24718 34.2926C3.21124 34.3018 3.1753 34.3066 3.13976 34.3066Z" fill="#F48CA7"/>
</g>
<g id="Group_10">
<path id="Vector_14" d="M16.221 20.0238C16.0381 20.0238 15.8732 19.8977 15.8317 19.7116C15.7411 19.3079 15.6205 18.9305 15.4623 18.5584C15.3226 18.2206 15.1541 17.8947 14.9445 17.5601C14.8275 17.3729 14.8846 17.1269 15.071 17.0099C15.2587 16.8929 15.5047 16.9504 15.6213 17.1369C15.8549 17.5102 16.0437 17.8744 16.1987 18.2505C16.3744 18.6642 16.5093 19.0863 16.6104 19.5379C16.6587 19.7531 16.5233 19.9667 16.3081 20.0147C16.2793 20.0206 16.2498 20.0238 16.221 20.0238Z" fill="#E88090"/>
</g>
<g id="Group_11">
<path id="Vector_15" d="M13.9294 20.4831C13.7521 20.4831 13.5896 20.3637 13.5433 20.1836C13.4083 19.6629 13.2298 19.1618 13.0126 18.6946C12.8185 18.2793 12.5881 17.8764 12.3298 17.4971C12.2052 17.315 12.2527 17.0666 12.4348 16.942C12.6165 16.8179 12.8657 16.865 12.9898 17.0471C13.2725 17.4615 13.5237 17.902 13.7365 18.3568C13.9745 18.8687 14.1694 19.4153 14.3163 19.9831C14.3718 20.1968 14.2433 20.4144 14.03 20.4699C13.9965 20.4787 13.9625 20.4831 13.9294 20.4831Z" fill="#E88090"/>
</g>
<g id="Group_12">
<g id="Group_13">
<path id="Vector_16" d="M24.0003 21.681C23.7794 21.681 23.601 21.5021 23.601 21.2817V20.1157C23.601 19.8953 23.7794 19.7164 24.0003 19.7164C24.2211 19.7164 24.3996 19.8953 24.3996 20.1157V21.2817C24.3996 21.5021 24.2207 21.681 24.0003 21.681Z" fill="#EA728C"/>
</g>
</g>
<g id="Group_14">
<path id="Vector_17" d="M24.0003 25.5661C23.7794 25.5661 23.601 25.3876 23.601 25.1668V23.6135C23.601 23.3931 23.7794 23.2142 24.0003 23.2142C24.2211 23.2142 24.3996 23.3931 24.3996 23.6135V25.1668C24.3996 25.3872 24.2207 25.5661 24.0003 25.5661Z" fill="#EA728C"/>
</g>
</g>
</g>
</g>
</g>
<defs>
<clipPath id="clip0_1_974">
<rect width="48" height="48" fill="white"/>
</clipPath>
</defs>
</svg>
