<svg width="48" height="48" viewBox="0 0 48 48" fill="none" xmlns="http://www.w3.org/2000/svg">
<g id="fi_1496742" clip-path="url(#clip0_1_307)">
<g id="Group">
<path id="Vector" d="M24 4.17928C23.5941 4.17928 23.2653 3.85033 23.2653 3.44459C23.2653 2.14526 20.9708 1.51019 20.9477 1.50411C20.5556 1.40184 20.3196 1.00129 20.4211 0.60906C20.5225 0.216831 20.9222 -0.0194461 21.314 0.081158C21.4537 0.116913 24.7347 0.986399 24.7347 3.44449C24.7347 3.85033 24.4058 4.17928 24 4.17928Z" fill="#51B1CE"/>
<path id="Vector_2" d="M24 4.17924C23.5941 4.17924 23.2653 3.8503 23.2653 3.44455C23.2653 0.986462 26.5462 0.116976 26.6859 0.0812209C27.0788 -0.019677 27.4793 0.217384 27.58 0.610396C27.6808 1.00341 27.4438 1.40377 27.0508 1.50457C27.0291 1.51015 24.7346 2.14522 24.7346 3.44455C24.7346 3.8503 24.4058 4.17924 24 4.17924Z" fill="#51B1CE"/>
<g id="Group_2">
<path id="Vector_3" d="M20.5231 43.1908V38.3488C20.5231 37.9431 20.1942 37.6141 19.7884 37.6141C19.3826 37.6141 19.0537 37.9431 19.0537 38.3488V43.1908L16.4706 45.7739C16.1837 46.0609 16.1837 46.5261 16.4706 46.8129C16.7576 47.0998 17.2228 47.0998 17.5097 46.8129L19.0537 45.2689V47.2073C19.0537 47.613 19.3826 47.942 19.7884 47.942C20.1942 47.942 20.5231 47.613 20.5231 47.2073V45.2689L22.0671 46.8129C22.2106 46.9564 22.3986 47.0281 22.5867 47.0281C22.7747 47.0281 22.9628 46.9564 23.1063 46.8129C23.3932 46.526 23.3932 46.0609 23.1063 45.7739L20.5231 43.1908Z" fill="#FFA943"/>
<path id="Vector_4" d="M31.5294 45.7739L28.9462 43.1908V38.3488C28.9462 37.9431 28.6173 37.6141 28.2115 37.6141C27.8057 37.6141 27.4768 37.9431 27.4768 38.3488V43.1908L24.8937 45.7739C24.6068 46.0609 24.6068 46.5261 24.8937 46.8129C25.1807 47.0998 25.6458 47.0998 25.9328 46.8129L27.4768 45.2689V47.2073C27.4768 47.613 27.8057 47.942 28.2115 47.942C28.6173 47.942 28.9462 47.613 28.9462 47.2073V45.2689L30.4903 46.813C30.6338 46.9565 30.8219 47.0282 31.0099 47.0282C31.198 47.0282 31.386 46.9565 31.5295 46.813C31.8162 46.526 31.8162 46.0608 31.5294 45.7739Z" fill="#FFA943"/>
</g>
<path id="Vector_5" d="M6.67551 20.6658C6.67551 20.6658 0.196685 18.3712 0.196685 16.8203C0.196685 15.2694 2.74588 15.799 2.74588 15.799C2.74588 15.799 -0.869208 13.3002 0.196685 12.2246C1.26258 11.149 2.99891 12.2246 2.99891 12.2246C2.99891 12.2246 0.0590528 9.76888 1.16775 8.65018C2.27646 7.53149 6.03515 8.01188 8.64733 13.4802H39.3526C41.9648 8.01188 45.7235 7.53139 46.8322 8.65018C47.9409 9.76897 45.0012 12.2246 45.0012 12.2246C45.0012 12.2246 46.7374 11.149 47.8034 12.2246C48.8694 13.3002 45.2542 15.799 45.2542 15.799C45.2542 15.799 47.8034 15.2694 47.8034 16.8203C47.8034 18.3712 41.3246 20.6658 41.3246 20.6658" fill="#51B1CE"/>
<path id="Vector_6" d="M41.4984 23.6528C41.4984 11.951 33.6641 2.46484 24 2.46484C14.3358 2.46484 6.50153 11.951 6.50153 23.6528C6.50153 35.3546 14.3358 39.1024 24 39.1024C33.6641 39.1024 41.4984 35.3546 41.4984 23.6528Z" fill="#6EC7EA"/>
<path id="Vector_7" d="M23.8726 39.1021C14.2667 39.0697 6.50153 35.3032 6.50153 23.6529C6.50153 11.9517 14.3353 2.46533 24 2.46533C18.5515 2.46533 14.1345 11.9517 14.1345 23.6529C14.1345 35.264 18.4829 39.0443 23.8726 39.1021Z" fill="#51B1CE"/>
<path id="Vector_8" d="M37.5918 34.7089C34.3836 37.8946 29.4867 39.1024 24 39.1024C18.5133 39.1024 13.6163 37.8946 10.4081 34.7089C13.6163 29.9236 18.5133 26.8663 24 26.8663C29.4867 26.8663 34.3827 29.9236 37.5918 34.7089Z" fill="#E6E6E6"/>
<path id="Vector_9" d="M10.4081 34.7089C13.5852 37.8637 18.4189 39.078 23.8409 39.1013C19.6245 39.0446 16.0508 36.7006 14.7058 30.0994C13.072 31.342 11.6195 32.9021 10.4081 34.7089Z" fill="#CCCCCC"/>
<g id="Group_3">
<path id="Vector_10" d="M28.7543 19.7819C28.719 20.3187 28.4574 20.8408 27.9823 21.1896L25.121 23.2878C24.7879 23.5318 24.3941 23.6542 24.0003 23.6542C23.6075 23.6542 23.2157 23.5337 22.8826 23.2898C22.8816 23.2888 22.8797 23.2888 22.8787 23.2878L20.0173 21.1896C20.0124 21.1856 20.0075 21.1827 20.0036 21.1798C19.9987 21.1758 19.9938 21.1719 19.9889 21.168C19.5314 20.8202 19.2797 20.3089 19.2454 19.7819C19.214 19.2931 19.3708 18.7905 19.7273 18.3938C19.7312 18.3889 19.7361 18.383 19.741 18.3781C19.744 18.3752 19.7469 18.3713 19.7499 18.3683L22.6112 15.2895C22.6122 15.2885 22.6142 15.2875 22.6152 15.2856C22.9903 14.8849 23.4948 14.6841 24.0003 14.6841C24.5058 14.6841 25.0103 14.8849 25.3854 15.2856C25.3864 15.2875 25.3884 15.2885 25.3894 15.2895L28.2517 18.3683C28.2537 18.3713 28.2557 18.3722 28.2566 18.3752C28.2615 18.3811 28.2674 18.3869 28.2723 18.3928C28.6289 18.7896 28.7856 19.2921 28.7543 19.7819Z" fill="#FF4370"/>
<path id="Vector_11" d="M24.0004 14.6843V23.6545C23.6079 23.6545 23.2154 23.5335 22.8828 23.2899C22.8815 23.2886 22.8802 23.2886 22.8788 23.2873L20.0169 21.1891C20.0129 21.1851 20.0076 21.1824 20.0036 21.1798C19.1041 20.5079 18.9818 19.2053 19.7414 18.3778C19.7441 18.3751 19.7467 18.3711 19.7495 18.3685L22.6114 15.2897C22.6127 15.2883 22.614 15.2871 22.6154 15.2857C22.9906 14.8852 23.4948 14.6843 24.0004 14.6843Z" fill="#E52E62"/>
<path id="Vector_12" d="M28.7543 19.7819C27.2261 20.3305 25.6274 20.6077 24.0003 20.6077C24.0003 20.6077 24.0003 20.6077 23.9993 20.6077C22.3722 20.6077 20.7745 20.3295 19.2454 19.7819C19.214 19.2931 19.3708 18.7905 19.7273 18.3938C21.1007 18.8885 22.5378 19.1383 23.9993 19.1383C24.0003 19.1383 24.0003 19.1383 24.0003 19.1383C25.4619 19.1383 26.8989 18.8875 28.2723 18.3928C28.6289 18.7896 28.7856 19.2921 28.7543 19.7819Z" fill="#CC1F59"/>
</g>
<g id="Group_4">
<path id="Vector_13" d="M18.7566 16.1894C18.5685 16.1894 18.3805 16.1177 18.237 15.9742C17.7338 15.471 17.0648 15.1939 16.3533 15.1939C15.6417 15.1939 14.9726 15.471 14.4695 15.9742C14.1825 16.2611 13.7174 16.2611 13.4305 15.9742C13.1435 15.6873 13.1435 15.2221 13.4305 14.9352C14.2113 14.1544 15.2492 13.7245 16.3534 13.7245C17.4576 13.7245 18.4954 14.1544 19.2763 14.9352C19.5632 15.2221 19.5632 15.6873 19.2763 15.9742C19.1327 16.1177 18.9446 16.1894 18.7566 16.1894Z" fill="#3E475B"/>
<path id="Vector_14" d="M34.0501 16.1894C33.862 16.1894 33.674 16.1177 33.5305 15.9742C33.0273 15.471 32.3583 15.1939 31.6467 15.1939C30.9352 15.1939 30.2661 15.471 29.763 15.9742C29.476 16.2611 29.0108 16.2611 28.7239 15.9742C28.437 15.6873 28.437 15.2221 28.7239 14.9352C29.5048 14.1544 30.5426 13.7245 31.6468 13.7245C32.751 13.7245 33.7889 14.1544 34.5697 14.9352C34.8567 15.2221 34.8567 15.6873 34.5697 15.9742C34.4261 16.1177 34.238 16.1894 34.0501 16.1894Z" fill="#3E475B"/>
</g>
<g id="Group_5">
<path id="Vector_15" d="M32.9077 21.4843C34.1239 21.4843 35.1098 20.7985 35.1098 19.9524C35.1098 19.1064 34.1239 18.4205 32.9077 18.4205C31.6915 18.4205 30.7056 19.1064 30.7056 19.9524C30.7056 20.7985 31.6915 21.4843 32.9077 21.4843Z" fill="#51B1CE"/>
<path id="Vector_16" d="M14.5251 21.4843C15.7413 21.4843 16.7272 20.7985 16.7272 19.9524C16.7272 19.1064 15.7413 18.4205 14.5251 18.4205C13.3089 18.4205 12.3229 19.1064 12.3229 19.9524C12.3229 20.7985 13.3089 21.4843 14.5251 21.4843Z" fill="#51B1CE"/>
</g>
</g>
</g>
<defs>
<clipPath id="clip0_1_307">
<rect width="48" height="48" fill="white"/>
</clipPath>
</defs>
</svg>
