<svg width="48" height="48" viewBox="0 0 48 48" fill="none" xmlns="http://www.w3.org/2000/svg">
<g id="fi_2171990" clip-path="url(#clip0_1_214)">
<path id="Vector" d="M42.7238 15.8035C44.1722 11.0485 44.0119 6.02069 43.7212 3.08725C43.689 2.7577 43.5859 2.43903 43.4189 2.1531C43.2519 1.86718 43.025 1.62077 42.7539 1.4308C42.4827 1.24083 42.1736 1.11179 41.8478 1.05254C41.522 0.993294 41.1873 1.00524 40.8666 1.08756C35.1966 2.54912 31.8356 5.00725 29.94 6.96475C27.9917 6.51913 25.9986 6.29893 24 6.3085C22.0014 6.29893 20.0083 6.51913 18.06 6.96475C16.1644 5.00725 12.8034 2.54912 7.13344 1.08756C6.81272 1.00524 6.47798 0.993294 6.15221 1.05254C5.82644 1.11179 5.51735 1.24083 5.24615 1.4308C4.97495 1.62077 4.74807 1.86718 4.58108 2.1531C4.4141 2.43903 4.31096 2.7577 4.27875 3.08725C3.98812 6.02069 3.82781 11.0485 5.27625 15.8035C2.40656 20.1094 1.03125 26.7507 1.03125 31.831C1.03125 36.3751 8.61 46.9688 24 46.9688C39.39 46.9688 46.9688 36.3751 46.9688 31.831C46.9688 26.7507 45.5934 20.1094 42.7238 15.8035Z" fill="#F29555"/>
<path id="Vector_2" d="M36.0478 28.3706C31.2975 28.3706 29.2462 33.0703 24 33.0703C18.7537 33.0703 16.7025 28.3706 11.9522 28.3706C5.06249 28.3706 2.13843 34.1672 1.8103 34.8656C4.10062 39.9281 11.4553 46.9687 24 46.9687C36.5447 46.9687 43.8994 39.9281 46.1897 34.8656C45.8616 34.1672 42.9375 28.3706 36.0478 28.3706Z" fill="#F7E3CD"/>
<path id="Vector_3" d="M23.9062 43.4737C13.5103 43.4737 6.17249 39.3272 1.83749 34.8094L1.8103 34.8656C4.10062 39.9281 11.4553 46.9687 24 46.9687C36.5447 46.9687 43.8994 39.9281 46.1897 34.8656C46.17 34.8225 46.1391 34.7597 46.0959 34.6781C41.7797 39.2484 34.4006 43.4737 23.9062 43.4737Z" fill="#F2C59E"/>
<g id="Group">
<path id="Vector_4" d="M11.8125 9.15842C10.6275 7.90967 8.79565 6.02905 8.08877 5.56311C5.27627 3.70873 4.09502 6.12561 4.09502 6.12561C4.03408 8.8303 4.23658 12.1922 5.17408 15.4528C8.12721 12.5222 13.2113 9.92155 13.2113 9.92155C12.6766 9.82009 12.1872 9.55314 11.8125 9.15842Z" fill="#F7E3CD"/>
<path id="Vector_5" d="M36.1875 9.15842C37.3725 7.90967 39.2044 6.02905 39.9113 5.56311C42.7238 3.70873 43.905 6.12561 43.905 6.12561C43.9659 8.8303 43.7634 12.1922 42.8259 15.4528C39.8728 12.5222 34.7888 9.92155 34.7888 9.92155C35.3235 9.82009 35.8128 9.55314 36.1875 9.15842Z" fill="#F7E3CD"/>
<path id="Vector_6" d="M19.4719 18.4313C19.4719 19.3988 18.5035 20.1835 17.31 20.1835C16.1166 20.1835 15.1472 19.0238 15.1472 18.0563C15.1472 17.0888 16.1157 16.6791 17.31 16.6791C18.5044 16.6791 19.4719 17.4638 19.4719 18.4313Z" fill="#F7E3CD"/>
<path id="Vector_7" d="M28.6725 18.4313C28.6725 19.3988 29.641 20.1835 30.8354 20.1835C32.0297 20.1835 33 19.0238 33 18.0563C33 17.0888 32.0316 16.6791 30.8382 16.6791C29.6447 16.6791 28.6725 17.4638 28.6725 18.4313Z" fill="#F7E3CD"/>
</g>
<path id="Vector_8" d="M24.0722 35.3091C24.0722 35.3091 21.7575 38.5697 17.6128 37.5769V37.7316C17.6128 37.7316 18.5269 42.1078 24 42.1078C29.4731 42.1078 30.3862 37.7316 30.3862 37.7316V37.6106C26.3325 38.4938 24.0722 35.3091 24.0722 35.3091Z" fill="#AA0C18"/>
<path id="Vector_9" d="M43.8225 15.6336C45.15 10.978 45.0572 6.17707 44.7356 2.9277C44.6896 2.46186 44.5435 2.01149 44.3071 1.60747C44.0707 1.20344 43.7497 0.85533 43.3661 0.587009C42.9826 0.318688 42.5455 0.136507 42.085 0.0529644C41.6244 -0.0305784 41.1512 -0.0135067 40.6978 0.103009C35.0728 1.55238 31.6313 3.97488 29.6634 5.88176C25.9261 5.12175 22.0739 5.12175 18.3366 5.88176C16.3678 3.97488 12.9272 1.55238 7.30219 0.103009C6.84883 -0.0135067 6.37563 -0.0305784 5.91505 0.0529644C5.45447 0.136507 5.01741 0.318688 4.63385 0.587009C4.25029 0.85533 3.92931 1.20344 3.69293 1.60747C3.45655 2.01149 3.31035 2.46186 3.26437 2.9277C2.94281 6.17707 2.85 10.978 4.1775 15.6336C1.10063 20.5096 0 27.3805 0 31.8674C0 34.3124 1.875 38.3605 6.07031 41.8921C9.37969 44.6783 15.1762 47.9999 24 47.9999C32.8237 47.9999 38.625 44.6783 41.9297 41.8921C46.125 38.3605 48 34.3124 48 31.8674C48 27.3805 46.8994 20.5096 43.8225 15.6336ZM41.1675 1.92457C41.3567 1.87512 41.5544 1.86762 41.7468 1.9026C41.9392 1.93758 42.1216 2.01419 42.2812 2.12707C42.443 2.24 42.5784 2.38664 42.6781 2.55689C42.7778 2.72715 42.8394 2.91698 42.8587 3.11332C42.8859 3.38895 42.9122 3.69457 42.9366 4.02363C42.8803 4.00488 42.825 3.98613 42.7659 3.9702C41.7413 3.68895 40.6256 3.94582 39.4509 4.7202C38.8387 5.12332 37.5262 6.38332 35.5491 8.46551C35.3239 8.70488 35.0322 8.87138 34.7116 8.94355C34.3909 9.01573 34.056 8.99029 33.75 8.87051C32.8894 8.53207 31.8084 7.95832 31.1494 7.06582C32.97 5.35395 36.0938 3.23145 41.1675 1.92457ZM5.71875 2.12707C5.94462 1.96711 6.21447 1.88098 6.49125 1.88051C6.60763 1.88086 6.72352 1.89566 6.83625 1.92457C11.9062 3.23145 15.03 5.35395 16.8516 7.06582C16.1953 7.95832 15.1116 8.53207 14.2509 8.87051C13.9442 8.99106 13.6085 9.01691 13.2869 8.94472C12.9654 8.87253 12.6729 8.7056 12.4472 8.46551C10.47 6.38332 9.1575 5.12332 8.54531 4.7202C7.37063 3.94582 6.255 3.68895 5.23031 3.9702C5.17125 3.98613 5.11594 4.00488 5.05969 4.02363C5.08406 3.69457 5.11031 3.38895 5.1375 3.11332C5.15726 2.91667 5.21947 2.72664 5.31982 2.55637C5.42017 2.38609 5.55628 2.23962 5.71875 2.12707ZM40.7166 40.453C37.6481 43.0377 32.2566 46.1183 24 46.1183C15.7434 46.1183 10.3519 43.0377 7.28344 40.453C3.73781 37.4671 1.8825 33.8736 1.8825 31.8674C1.8825 27.1977 3.14438 20.593 5.96344 16.3396C6.63017 15.5516 7.37804 14.8361 8.19469 14.2049C8.39422 14.0557 8.52632 13.8334 8.56192 13.5868C8.59752 13.3402 8.53372 13.0896 8.38453 12.89C8.23535 12.6905 8.01301 12.5584 7.76643 12.5228C7.51985 12.4872 7.26922 12.551 7.06969 12.7002C6.5825 13.0694 6.11879 13.4686 5.68125 13.8955C5.07281 11.2208 4.93125 8.54051 4.96031 6.34582C5.14831 6.07623 5.42183 5.87802 5.73656 5.78332C6.21656 5.65957 6.81375 5.8302 7.51781 6.29145C7.98656 6.59801 9.31781 7.89457 11.0916 9.7602C11.5744 10.2732 12.2002 10.6295 12.8878 10.7829C13.5754 10.9364 14.2933 10.8799 14.9484 10.6208C16.1822 10.1352 17.7769 9.2502 18.6712 7.73801C22.1922 7.01051 25.8247 7.01051 29.3456 7.73801C30.24 9.2502 31.8347 10.1352 33.0684 10.6208C33.7236 10.8799 34.4415 10.9364 35.1291 10.7829C35.8167 10.6295 36.4424 10.2732 36.9253 9.7602C38.6991 7.89363 40.035 6.59707 40.4991 6.29145C41.1994 5.8302 41.7975 5.65957 42.2803 5.78332C42.595 5.87815 42.8685 6.07633 43.0566 6.34582C43.0903 8.53957 42.9441 11.2208 42.3356 13.8955C41.8981 13.4686 41.4344 13.0694 40.9472 12.7002C40.8484 12.626 40.7359 12.572 40.6163 12.5413C40.4966 12.5106 40.3721 12.5037 40.2498 12.5211C40.1274 12.5386 40.0098 12.5799 39.9034 12.6428C39.7971 12.7057 39.7042 12.7889 39.63 12.8877C39.5558 12.9865 39.5018 13.0989 39.4711 13.2186C39.4404 13.3383 39.4335 13.4628 39.451 13.5851C39.4684 13.7074 39.5097 13.8251 39.5726 13.9315C39.6355 14.0378 39.7187 14.1307 39.8175 14.2049C40.6343 14.8363 41.3821 15.5522 42.0487 16.3405C44.8678 20.593 46.1297 27.1977 46.1297 31.8674C46.1175 33.8736 44.2622 37.4671 40.7166 40.453Z" fill="black"/>
<path id="Vector_10" d="M14.8585 26.0475C16.216 26.0475 17.3166 24.9469 17.3166 23.5894C17.3166 22.2318 16.216 21.1312 14.8585 21.1312C13.5009 21.1312 12.4003 22.2318 12.4003 23.5894C12.4003 24.9469 13.5009 26.0475 14.8585 26.0475Z" fill="black"/>
<path id="Vector_11" d="M33.2859 21.1312C32.7998 21.1312 32.3245 21.2754 31.9203 21.5455C31.516 21.8156 31.201 22.1995 31.0149 22.6487C30.8289 23.0978 30.7802 23.5921 30.8751 24.0689C30.9699 24.5457 31.204 24.9837 31.5478 25.3275C31.8916 25.6713 32.3296 25.9054 32.8064 26.0002C33.2832 26.0951 33.7775 26.0464 34.2266 25.8604C34.6758 25.6743 35.0597 25.3592 35.3298 24.955C35.5999 24.5508 35.7441 24.0755 35.7441 23.5894C35.7436 22.9376 35.4844 22.3126 35.0236 21.8517C34.5627 21.3909 33.9377 21.1317 33.2859 21.1312Z" fill="black"/>
<path id="Vector_12" d="M31.3125 36.344C27.8128 37.7503 25.6219 35.6784 25.0097 34.979V34.8356C25.9376 34.6389 26.7939 34.1918 27.4856 33.5428C28.395 32.699 28.9378 31.6312 28.9378 30.675C28.9378 28.7418 26.8012 27.2278 24.0722 27.2278C21.3431 27.2278 19.2066 28.7418 19.2066 30.675C19.2066 32.3737 20.8941 34.3809 23.1347 34.8356V34.9781C22.5187 35.6831 20.3278 37.7512 16.8319 36.344C16.7173 36.2958 16.5942 36.2708 16.4699 36.2706C16.3455 36.2704 16.2224 36.2949 16.1076 36.3427C15.9928 36.3906 15.8887 36.4607 15.8013 36.5492C15.7139 36.6376 15.645 36.7426 15.5986 36.8579C15.5521 36.9733 15.5291 37.0967 15.5308 37.221C15.5325 37.3453 15.5589 37.4681 15.6085 37.5821C15.6581 37.6961 15.7299 37.7991 15.8197 37.8852C15.9095 37.9712 16.0155 38.0384 16.1316 38.0831C16.3612 38.1768 16.5862 38.2556 16.8066 38.325C17.0748 39.1271 17.4911 39.8718 18.0337 40.5206C18.9947 41.6718 20.8125 43.0453 24 43.0453C27.1875 43.0453 29.0044 41.6718 29.9653 40.5206C30.4967 39.8854 30.907 39.158 31.1756 38.3747C31.4481 38.2953 31.7272 38.1981 32.0128 38.0831C32.2397 37.9876 32.4199 37.8068 32.5145 37.5796C32.6092 37.3524 32.6107 37.0971 32.5188 36.8688C32.4268 36.6405 32.2488 36.4575 32.0231 36.3593C31.7974 36.2612 31.5422 36.2557 31.3125 36.344ZM24 41.1703C21.0741 41.1703 19.6725 39.764 19.0312 38.7H19.155C20.3457 38.7 21.5164 38.3937 22.5544 37.8103C23.1044 37.502 23.6145 37.1274 24.0731 36.6947C24.5319 37.1271 25.042 37.5018 25.5919 37.8103C26.6227 38.3896 27.7844 38.6959 28.9669 38.7C28.8227 38.9396 28.6587 39.1666 28.4766 39.3787C27.4491 40.5684 25.9434 41.1703 24 41.1703Z" fill="black"/>
</g>
<defs>
<clipPath id="clip0_1_214">
<rect width="48" height="48" fill="white"/>
</clipPath>
</defs>
</svg>
