<svg width="48" height="48" viewBox="0 0 48 48" fill="none" xmlns="http://www.w3.org/2000/svg">
<g id="fi_616408" clip-path="url(#clip0_1_264)">
<path id="Vector" d="M41.0322 4.25807H33.2903C30.4838 5.37098 29.8617 3.48389 24 3.48389C18.1383 3.48389 17.5162 5.37098 14.7097 4.25807H6.96778L5.9355 23.7098C6.58069 31.3549 11.3226 35.5162 15.0646 37.0323H32.9355C36.6774 35.5162 41.4194 31.3549 42.0646 23.7098L41.0322 4.25807Z" fill="#F5DCB4"/>
<path id="Vector_2" d="M33.2903 4.25809C42.0073 6.86725 37.2619 20.3226 42.8747 26.1388C43.6805 26.9737 45.1042 26.6028 45.4404 25.4924C45.8848 24.0251 46.3286 21.7038 46.258 18.3872C46.1613 13.8388 48 13.5485 48 13.5485C48 13.5485 45.6774 2.70972 38.7097 2.70972C36.3871 2.70972 33.2903 4.25809 33.2903 4.25809Z" fill="#965A50"/>
<path id="Vector_3" d="M15.8709 24.3871C14.3806 24.3871 13.1613 23.1678 13.1613 21.6775V20.1291C13.1613 18.6387 14.3806 17.4194 15.8709 17.4194C17.3613 17.4194 18.5806 18.6387 18.5806 20.1291V21.6775C18.5807 23.1679 17.3613 24.3871 15.8709 24.3871Z" fill="#4B3F4E"/>
<path id="Vector_4" d="M15.8709 17.4193C15.7385 17.4193 15.6113 17.44 15.4838 17.4586V21.2902C15.4838 22.1453 16.1771 22.8386 17.0322 22.8386C17.8874 22.8386 18.5806 22.1453 18.5806 21.2902V20.1291C18.5807 18.6388 17.3613 17.4193 15.8709 17.4193Z" fill="#5D5360"/>
<path id="Vector_5" d="M15.8709 20.516C16.5123 20.516 17.0322 19.9961 17.0322 19.3548C17.0322 18.7134 16.5123 18.1935 15.8709 18.1935C15.2296 18.1935 14.7097 18.7134 14.7097 19.3548C14.7097 19.9961 15.2296 20.516 15.8709 20.516Z" fill="white"/>
<path id="Vector_6" d="M32.1291 24.3871C30.6387 24.3871 29.4194 23.1678 29.4194 21.6775V20.1291C29.4194 18.6387 30.6387 17.4194 32.1291 17.4194C33.6194 17.4194 34.8387 18.6387 34.8387 20.1291V21.6775C34.8387 23.1679 33.6193 24.3871 32.1291 24.3871Z" fill="#4B3F4E"/>
<path id="Vector_7" d="M32.1291 17.4193C31.9966 17.4193 31.8695 17.44 31.742 17.4586V21.2902C31.742 22.1453 32.4353 22.8386 33.2903 22.8386C34.1455 22.8386 34.8387 22.1453 34.8387 21.2902V20.1291C34.8387 18.6388 33.6193 17.4193 32.1291 17.4193Z" fill="#5D5360"/>
<path id="Vector_8" d="M32.1291 20.516C32.7704 20.516 33.2903 19.9961 33.2903 19.3548C33.2903 18.7134 32.7704 18.1935 32.1291 18.1935C31.4877 18.1935 30.9678 18.7134 30.9678 19.3548C30.9678 19.9961 31.4877 20.516 32.1291 20.516Z" fill="white"/>
<path id="Vector_9" d="M42.8747 26.1388C43.6805 26.9737 45.1042 26.6028 45.4404 25.4923C45.6953 24.6508 45.9466 23.5179 46.1042 22.0879C44.5823 21.3293 43.2831 18.9089 42.4838 14.8064C41.0322 7.35482 39 3.19354 33.2903 4.25798C42.0073 6.86714 37.2619 20.3226 42.8747 26.1388Z" fill="#824641"/>
<path id="Vector_10" d="M15.0646 37.0323H18.7341C18.7341 37.0323 12.2904 32.7098 11.2259 25.0646C9.15506 10.1918 13.0969 5.74196 16.5063 4.60646C15.9662 4.62474 15.4052 4.5339 14.7098 4.25818H6.96778L5.9355 23.7098C6.58069 31.3549 11.3226 35.5162 15.0646 37.0323Z" fill="#E7C9A5"/>
<path id="Vector_11" d="M14.7097 4.25809C5.99269 6.86725 10.7382 20.3227 5.12531 26.1388C4.31953 26.9737 2.89584 26.6028 2.55956 25.4924C2.11519 24.0251 1.67137 21.7038 1.74197 18.3872C1.83872 13.8388 0 13.5485 0 13.5485C0 13.5485 2.32256 2.70972 9.29034 2.70972C11.6129 2.70972 14.7097 4.25809 14.7097 4.25809Z" fill="#965A50"/>
<path id="Vector_12" d="M14.4505 4.13481C13.6649 3.77031 11.2147 2.70972 9.29034 2.70972C2.32256 2.70972 0 13.5485 0 13.5485C0 13.5485 1.83872 13.8389 1.74197 18.3872C1.74066 18.448 1.74244 18.5027 1.7415 18.5627C6.19659 1.66084 13.0424 3.54128 14.4505 4.13481Z" fill="#824641"/>
<path id="Vector_13" d="M24 43.7418C28.7034 43.7418 32.5162 40.9691 32.5162 37.5487C32.5162 34.1283 28.7034 31.3556 24 31.3556C19.2966 31.3556 15.4837 34.1283 15.4837 37.5487C15.4837 40.9691 19.2966 43.7418 24 43.7418Z" fill="#BC8E78"/>
<path id="Vector_14" d="M20.1291 37.5483V41.4193C20.1291 43.5572 21.8621 45.2902 24 45.2902C26.1379 45.2902 27.8709 43.5572 27.8709 41.4193V37.5483H20.1291Z" fill="#FF8087"/>
<path id="Vector_15" d="M20.1291 40.5721C21.2485 40.4318 22.3048 40.0912 23.2258 39.5762V40.6452C23.2258 41.0727 23.5725 41.4194 24 41.4194C24.4275 41.4194 24.7742 41.0727 24.7742 40.6452V39.5664C25.6863 40.0869 26.7454 40.4312 27.8709 40.5723V37.5483H20.1291V40.5721Z" fill="#E6646E"/>
<path id="Vector_16" d="M29.0322 30.5807H18.9678C15.761 30.5807 13.1614 32.4871 13.1614 34.8387C13.1614 37.1903 15.7611 39.0968 18.9678 39.0968C20.5826 39.0968 22.0411 38.6122 23.0923 37.8313C23.3585 37.6337 23.6794 37.5349 23.9997 37.5349C24.3206 37.5349 24.6415 37.6336 24.9077 37.8313C25.9589 38.6122 27.4174 39.0968 29.0322 39.0968C32.239 39.0968 34.8386 37.1903 34.8386 34.8387C34.8387 32.4871 32.239 30.5807 29.0322 30.5807Z" fill="#D4AF91"/>
<path id="Vector_17" d="M24 27.4839C26.5655 27.4839 28.6451 28.8704 28.6451 30.5806C28.6451 32.2301 26.6929 33.0986 25.2839 33.7408C24.4672 34.113 23.5327 34.113 22.7159 33.7408C21.3069 33.0986 19.3547 32.2301 19.3547 30.5806C19.3549 28.8704 21.4345 27.4839 24 27.4839Z" fill="#5D5360"/>
<path id="Vector_18" d="M21.6532 29.7338C21.545 28.7595 22.2313 27.7175 22.2313 27.7175C20.5435 28.1815 19.3549 29.2879 19.3549 30.5806C19.3549 32.2299 21.3071 33.0984 22.7161 33.7407C23.5327 34.1129 24.4673 34.1129 25.2841 33.7407C25.5871 33.6026 25.9152 33.453 26.2436 33.2884C24.3387 32.9516 21.8709 31.6936 21.6532 29.7338Z" fill="#4B3F4E"/>
</g>
<defs>
<clipPath id="clip0_1_264">
<rect width="48" height="48" fill="white"/>
</clipPath>
</defs>
</svg>
