<svg width="48" height="48" viewBox="0 0 48 48" fill="none" xmlns="http://www.w3.org/2000/svg">
<g id="fi_875011">
<path id="Vector" d="M33.0194 9.28381L28.8064 12.3433L27.2096 24L29.1897 35.5929L33.0195 38.7162C34.5189 38.4882 35.9704 38.1204 37.3404 37.6201V10.3799C35.9703 9.87978 34.5188 9.51181 33.0194 9.28381Z" fill="#EFEDEE"/>
<path id="Vector_2" d="M33.4267 36.7677C32.6088 36.8914 31.7769 36.9744 30.9366 37.0175L33.0194 38.7162C34.5188 38.4882 35.9703 38.1203 37.3403 37.62V35.8369C36.0864 36.2499 34.7751 36.5625 33.4267 36.7677Z" fill="#D2D2D2"/>
<path id="Vector_3" d="M47.4954 27.6544L47.1131 26.9832L47.8209 26.2048C47.9383 25.4933 48 24.7582 48 24.0001C48 17.4727 43.4788 12.6152 37.3404 10.38C35.0899 14.2133 33.8682 18.9673 33.8682 24.0001C33.8682 29.0329 35.0898 33.7879 37.3404 37.6202C42.27 35.8251 46.1559 32.3385 47.4954 27.6544Z" fill="#FA9F6A"/>
<path id="Vector_4" d="M5.26659 30.5552C2.21034 32.4743 0 30.9787 0 24C0 17.0214 2.21034 15.5258 5.26659 17.4447V30.5552Z" fill="#3A484A"/>
<path id="Vector_5" d="M8.94468 20.8814V27.1185C7.6484 28.6629 6.39899 29.8433 5.26658 30.5552C4.36302 29.5263 3.8324 27.4222 3.8324 24C3.8324 20.5777 4.36321 18.4738 5.26658 17.4447C6.39908 18.1566 7.6484 19.337 8.94468 20.8814Z" fill="#E0712F"/>
<g id="Group">
<path id="Vector_6" d="M18.8953 11.4396C14.285 5.63837 20.5288 3.09662 26.8896 5.30302L18.8953 11.4396Z" fill="#3A484A"/>
<path id="Vector_7" d="M18.8953 36.5605C14.285 42.3618 20.5288 44.9035 26.8896 42.6971L18.8953 36.5605Z" fill="#3A484A"/>
</g>
<path id="Vector_8" d="M33.0194 9.28376L18.8953 11.4395C18.8953 11.4395 20.6936 6.69401 26.8896 5.30286C29.0616 6.05698 31.2479 7.36376 33.0194 9.28376Z" fill="#E0712F"/>
<path id="Vector_9" d="M33.0194 38.7162L18.8953 36.5605C18.8953 36.5605 20.6936 41.306 26.8896 42.6971C29.0616 41.943 31.2479 40.6362 33.0194 38.7162Z" fill="#FA9F6A"/>
<path id="Vector_10" d="M18.8962 11.4395H18.8953C18.895 11.4401 18.8948 11.4406 18.8946 11.4413L15.8404 14.6427L13.6047 24.9449L15.8403 33.2933L18.8953 36.5604C20.8048 37.4974 22.7947 38.1489 24.8019 38.5379V9.46204C22.7957 9.85091 20.8047 10.5025 18.8962 11.4395Z" fill="#EFEDEE"/>
<path id="Vector_11" d="M24.6921 36.5782H24.691C22.5573 36.1648 20.4418 35.4721 18.4119 34.476C17.5055 34.032 16.6165 33.5277 15.7514 32.9612L15.8404 33.2934L18.8954 36.5605C19.3728 36.7948 19.8552 37.0112 20.3416 37.2101C21.8009 37.8068 23.2966 38.2463 24.802 38.538V36.5984C24.7653 36.5915 24.7287 36.5854 24.6921 36.5782Z" fill="#D2D2D2"/>
<g id="Group_2">
<path id="Vector_12" d="M29.5568 23.9999C29.5568 29.3354 30.7698 34.4344 33.0193 38.7162C30.3722 39.1167 27.5735 39.0774 24.8028 38.5379H24.8018C22.1892 34.5609 20.7597 29.4428 20.7597 23.9999C20.7597 18.5571 22.1892 13.4399 24.8018 9.46194H24.8028C27.5735 8.9225 30.3721 8.88322 33.0193 9.28372C30.7708 13.5655 29.5568 18.6644 29.5568 23.9999Z" fill="#FA9F6A"/>
<path id="Vector_13" d="M16.4483 23.9999C16.4483 28.4656 17.2982 32.7663 18.8953 36.5603C14.6912 34.5015 10.8857 31.0657 8.20115 26.0166C7.53244 24.7578 7.53244 23.242 8.20115 21.9831C10.8857 16.934 14.6902 13.4983 18.8953 11.4395C17.2991 15.2334 16.4483 19.5333 16.4483 23.9999Z" fill="#FA9F6A"/>
</g>
<g id="Group_3">
<path id="Vector_14" d="M37.9318 37.3946C39.9039 36.6079 41.7679 35.5143 43.3546 34.098C43.3617 34.0916 43.3692 34.0853 43.3764 34.0788C44.1024 33.4284 44.7693 32.71 45.3543 31.9299C45.3602 31.9221 45.3659 31.9142 45.3717 31.9064C46.1148 30.9118 46.7203 29.8258 47.1619 28.6562C45.1448 31.8089 41.885 34.1952 38.0202 35.6025C37.5299 35.7814 37.029 35.9431 36.5205 36.0899C36.7764 36.6143 37.0496 37.125 37.3404 37.6201C37.5386 37.548 37.7357 37.4727 37.9318 37.3946Z" fill="#E0712F"/>
<path id="Vector_15" d="M24.691 36.5782C24.3029 36.5031 23.9153 36.4183 23.5288 36.3245C23.9155 37.0948 24.3397 37.8346 24.8029 38.538C27.1751 38.9998 29.6169 39.1051 32.0199 38.8456C32.3552 38.8094 32.6885 38.7662 33.0193 38.7162C32.7134 38.134 32.4274 37.5361 32.1603 36.9251C29.7277 37.1678 27.1994 37.0663 24.691 36.5782Z" fill="#E0712F"/>
<path id="Vector_16" d="M18.8953 36.5604C18.5852 35.8238 18.3042 35.0677 18.0512 34.2954C14.0694 32.264 10.4446 29.0523 7.72754 24.4811C7.73288 24.5284 7.73991 24.5757 7.74676 24.6228C7.81763 25.1094 7.97044 25.5823 8.20116 26.0167C8.92585 27.3797 9.76416 28.6836 10.7162 29.8993C13.0579 32.8895 15.8736 35.0806 18.8953 36.5604Z" fill="#E0712F"/>
</g>
<g id="Group_4">
<path id="Vector_17" d="M47.6079 26.1954C47.5969 26.1966 46.4849 26.3081 45.3155 25.9861C44.9298 25.8799 44.5311 26.1066 44.4249 26.4923C44.3187 26.878 44.5454 27.2767 44.9311 27.3828C45.7703 27.6138 46.5789 27.663 47.1153 27.663C47.2656 27.663 47.3934 27.6592 47.4956 27.6543C47.6304 27.1831 47.7393 26.6998 47.821 26.2047C47.7524 26.1914 47.6809 26.1878 47.6079 26.1954Z" fill="#3A484A"/>
<path id="Vector_18" d="M40.8315 25.6695C40.7318 25.6695 40.6304 25.6489 40.5338 25.6051C40.1692 25.4404 40.0072 25.0113 40.1719 24.6468C40.4874 23.9488 41.102 23.4171 41.8583 23.1881C42.6146 22.9589 43.421 23.0605 44.0707 23.4664C44.4099 23.6784 44.5131 24.1253 44.3011 24.4645C44.0891 24.8037 43.6423 24.907 43.303 24.6949C43.008 24.5105 42.6344 24.4665 42.2782 24.5745C41.9219 24.6824 41.6354 24.9261 41.4921 25.2433C41.371 25.511 41.1074 25.6695 40.8315 25.6695Z" fill="#3A484A"/>
</g>
</g>
</svg>
