<svg width="48" height="48" viewBox="0 0 48 48" fill="none" xmlns="http://www.w3.org/2000/svg">
<g id="fi_10754665">
<g id="Group">
<g id="Group_2">
<g id="Group_3">
<path id="Vector" d="M24 43.4265C34.7289 43.4265 43.4265 34.7289 43.4265 24C43.4265 13.271 34.7289 4.57349 24 4.57349C13.271 4.57349 4.57349 13.271 4.57349 24C4.57349 34.7289 13.271 43.4265 24 43.4265Z" fill="#8C3F0A"/>
</g>
</g>
<g id="Group_4">
<g id="Group_5">
<path id="Vector_2" d="M23.9999 39.2652C32.4307 39.2652 39.2652 32.4307 39.2652 23.9999C39.2652 15.5691 32.4307 8.73462 23.9999 8.73462C15.5691 8.73462 8.73462 15.5691 8.73462 23.9999C8.73462 32.4307 15.5691 39.2652 23.9999 39.2652Z" fill="#7C3108"/>
</g>
</g>
<g id="Group_6">
<g id="Group_7">
<path id="Vector_3" d="M24 35.7191C30.4723 35.7191 35.7191 30.4723 35.7191 24C35.7191 17.5277 30.4723 12.2809 24 12.2809C17.5277 12.2809 12.2809 17.5277 12.2809 24C12.2809 30.4723 17.5277 35.7191 24 35.7191Z" fill="#6D2E03"/>
</g>
</g>
<g id="Group_8">
<g id="Group_9">
<g id="Group_10">
<g id="Group_11">
<g id="Group_12">
<g id="Group_13">
<path id="Vector_4" d="M18.703 24.0814C21.0785 24.0814 23.0042 22.1556 23.0042 19.7801C23.0042 17.4046 21.0785 15.4789 18.703 15.4789C16.3275 15.4789 14.4017 17.4046 14.4017 19.7801C14.4017 22.1556 16.3275 24.0814 18.703 24.0814Z" fill="#F1F2F2"/>
</g>
</g>
</g>
<g id="Group_14">
<g id="Group_15">
<g id="Group_16">
<path id="Vector_5" d="M18.703 22.7074C20.3197 22.7074 21.6303 21.3968 21.6303 19.7802C21.6303 18.1635 20.3197 16.8529 18.703 16.8529C17.0863 16.8529 15.7758 18.1635 15.7758 19.7802C15.7758 21.3968 17.0863 22.7074 18.703 22.7074Z" fill="#D1D3D4"/>
</g>
</g>
</g>
</g>
<g id="Group_17">
<g id="Group_18">
<g id="Group_19">
<g id="Group_20">
<path id="Vector_6" d="M29.2971 24.0814C31.6726 24.0814 33.5983 22.1556 33.5983 19.7801C33.5983 17.4046 31.6726 15.4789 29.2971 15.4789C26.9216 15.4789 24.9958 17.4046 24.9958 19.7801C24.9958 22.1556 26.9216 24.0814 29.2971 24.0814Z" fill="#F1F2F2"/>
</g>
</g>
</g>
<g id="Group_21">
<g id="Group_22">
<g id="Group_23">
<path id="Vector_7" d="M29.2971 22.7074C30.9138 22.7074 32.2244 21.3968 32.2244 19.7802C32.2244 18.1635 30.9138 16.8529 29.2971 16.8529C27.6804 16.8529 26.3699 18.1635 26.3699 19.7802C26.3699 21.3968 27.6804 22.7074 29.2971 22.7074Z" fill="#D1D3D4"/>
</g>
</g>
</g>
</g>
</g>
<g id="Group_24">
<g id="Group_25">
<g id="Group_26">
<g id="Group_27">
<path id="Vector_8" d="M24.0001 32.5213C20.5223 32.5213 17.7032 29.702 17.7032 26.2245V24.6918C17.7032 21.2143 20.5225 18.395 24.0001 18.395C27.4776 18.395 30.2969 21.2143 30.2969 24.6918V26.2245C30.2969 29.702 27.4778 32.5213 24.0001 32.5213Z" fill="#F1F2F2"/>
</g>
</g>
</g>
<g id="Group_28">
<g id="Group_29">
<g id="Group_30">
<path id="Vector_9" d="M19.0614 23.5313C19.0239 23.5313 18.9864 23.5256 18.9487 23.5144C18.853 23.4844 18.7743 23.4188 18.7293 23.3306C18.6824 23.2425 18.673 23.1394 18.703 23.0438C18.7649 22.8506 18.9787 22.7381 19.1718 22.7981C19.3687 22.86 19.4793 23.0681 19.4191 23.265V23.2669C19.3707 23.4244 19.2264 23.5313 19.0614 23.5313ZM19.708 22.1831C19.6332 22.1831 19.5599 22.1625 19.4982 22.1194C19.4157 22.0631 19.3595 21.9788 19.3405 21.8794C19.3201 21.7819 19.3405 21.6825 19.397 21.6C20.432 20.0625 22.153 19.1456 24.0001 19.1456C25.2845 19.1456 26.537 19.5956 27.527 20.4131C27.6039 20.4769 27.6526 20.5669 27.6622 20.6663C27.6715 20.7675 27.6415 20.865 27.5778 20.9419C27.4501 21.0938 27.2047 21.1181 27.049 20.9925C26.1922 20.2838 25.1103 19.8956 24.0003 19.8956C22.4047 19.8956 20.9159 20.6888 20.0197 22.0181C19.9499 22.1213 19.8339 22.1831 19.708 22.1831Z" fill="white"/>
</g>
</g>
</g>
<g id="Group_31">
<g id="Group_32">
<path id="Vector_10" d="M27.4157 19.4011C28.0523 20.3851 28.4219 21.5577 28.4219 22.8168V24.3494C28.4219 27.827 25.6026 30.6462 22.125 30.6462C20.866 30.6462 19.6934 30.2767 18.7094 29.6401C19.831 31.3739 21.7815 32.5212 24 32.5212C27.4776 32.5212 30.2969 29.702 30.2969 26.2244V24.6918C30.2969 22.4733 29.1495 20.5227 27.4157 19.4011Z" fill="#E6E7E8"/>
</g>
</g>
<g id="Group_33">
<g id="Group_34">
<path id="Vector_11" d="M27.9591 19.7953C28.8348 20.877 29.3594 22.2544 29.3594 23.7544V25.287C29.3594 28.7645 26.5401 31.5838 23.0626 31.5838C21.5626 31.5838 20.185 31.0592 19.1035 30.1835C20.258 31.6095 22.0225 32.5213 24.0001 32.5213C27.4776 32.5213 30.2969 29.702 30.2969 26.2245V24.6919C30.2969 22.7143 29.3853 20.9495 27.9591 19.7953Z" fill="#D1D3D4"/>
</g>
</g>
<g id="Group_35">
<g id="Group_36">
<g id="Group_37">
<g id="Group_38">
<g id="Group_39">
<path id="Vector_12" d="M21.0085 23.6439C21.4672 23.6439 21.839 23.2721 21.839 22.8135C21.839 22.3548 21.4672 21.983 21.0085 21.983C20.5499 21.983 20.1781 22.3548 20.1781 22.8135C20.1781 23.2721 20.5499 23.6439 21.0085 23.6439Z" fill="#58595B"/>
</g>
</g>
</g>
<g id="Group_40">
<g id="Group_41">
<g id="Group_42">
<path id="Vector_13" d="M26.9145 23.6439C27.3732 23.6439 27.745 23.2721 27.745 22.8135C27.745 22.3548 27.3732 21.983 26.9145 21.983C26.4559 21.983 26.0841 22.3548 26.0841 22.8135C26.0841 23.2721 26.4559 23.6439 26.9145 23.6439Z" fill="#58595B"/>
</g>
</g>
</g>
</g>
</g>
<g id="Group_43">
<g id="Group_44">
<g id="Group_45">
<g id="Group_46">
<path id="Vector_14" d="M24.6543 30.2048C24.3927 30.2048 24.158 30.0874 24.0001 29.9027C23.8422 30.0876 23.6075 30.2048 23.3459 30.2048C22.8713 30.2048 22.4855 29.8187 22.4855 29.3441V28.5092C22.4855 28.3952 22.5779 28.303 22.6917 28.303C22.8057 28.303 22.898 28.3954 22.898 28.5092V29.3441C22.898 29.5911 23.099 29.7921 23.3459 29.7921C23.5928 29.7921 23.7938 29.5911 23.7938 29.3441V27.6743C23.7938 27.5603 23.8863 27.468 24.0001 27.468C24.1139 27.468 24.2064 27.5605 24.2064 27.6743V29.3441C24.2064 29.5911 24.4073 29.7921 24.6543 29.7921C24.9012 29.7921 25.1022 29.5911 25.1022 29.3441V28.5092C25.1022 28.3952 25.1947 28.303 25.3085 28.303C25.4223 28.303 25.5147 28.3954 25.5147 28.5092V29.3441C25.5149 29.8187 25.1288 30.2048 24.6543 30.2048Z" fill="#808285"/>
</g>
</g>
</g>
</g>
<g id="Group_47">
<g id="Group_48">
<g id="Group_49">
<g id="Group_50">
<path id="Vector_15" d="M25.9081 28.6814C24.7423 28.6814 23.7937 27.9455 23.7937 27.041C23.7937 26.927 23.8861 26.8347 24 26.8347C24.1138 26.8347 24.2062 26.9272 24.2062 27.041C24.2062 27.718 24.9695 28.2687 25.908 28.2687C26.022 28.2687 26.1142 28.3612 26.1142 28.475C26.1146 28.5892 26.0221 28.6814 25.9081 28.6814Z" fill="#D1D3D4"/>
</g>
</g>
</g>
<g id="Group_51">
<g id="Group_52">
<g id="Group_53">
<path id="Vector_16" d="M22.0921 28.6815C21.9781 28.6815 21.8859 28.589 21.8859 28.4752C21.8859 28.3612 21.9783 28.269 22.0921 28.269C23.0304 28.269 23.7939 27.7181 23.7939 27.0412C23.7939 26.9272 23.8863 26.835 24.0001 26.835C24.1139 26.835 24.2064 26.9274 24.2064 27.0412C24.2064 27.9455 23.258 28.6815 22.0921 28.6815Z" fill="#D1D3D4"/>
</g>
</g>
</g>
</g>
<g id="Group_54">
<g id="Group_55">
<g id="Group_56">
<g id="Group_57">
<g id="Group_58">
<g id="Group_59">
<path id="Vector_17" d="M21.8844 25.7865C21.8583 25.7865 21.8317 25.7814 21.806 25.7709L19.5509 24.8441C19.4455 24.8008 19.3953 24.6802 19.4384 24.5748C19.4817 24.4695 19.6025 24.4192 19.7077 24.4623L21.9627 25.3892C22.0681 25.4325 22.1184 25.553 22.0752 25.6584C22.0424 25.7383 21.9655 25.7865 21.8844 25.7865Z" fill="#939598"/>
</g>
</g>
</g>
<g id="Group_60">
<g id="Group_61">
<g id="Group_62">
<path id="Vector_18" d="M19.5979 28.168C19.5105 28.168 19.4295 28.1121 19.4014 28.0245C19.3667 27.916 19.4263 27.7999 19.5349 27.765L21.8529 27.022C21.9613 26.9873 22.0775 27.0469 22.1124 27.1555C22.1471 27.264 22.0875 27.3801 21.9789 27.415L19.6609 28.158C19.64 28.1648 19.6187 28.168 19.5979 28.168Z" fill="#939598"/>
</g>
</g>
</g>
</g>
<g id="Group_63">
<g id="Group_64">
<g id="Group_65">
<path id="Vector_19" d="M20.9503 26.5138H18.5955C18.4815 26.5138 18.3893 26.4214 18.3893 26.3076C18.3893 26.1938 18.4817 26.1013 18.5955 26.1013H20.9503C21.0643 26.1013 21.1566 26.1938 21.1566 26.3076C21.1566 26.4214 21.0643 26.5138 20.9503 26.5138Z" fill="#939598"/>
</g>
</g>
</g>
</g>
<g id="Group_66">
<g id="Group_67">
<g id="Group_68">
<g id="Group_69">
<g id="Group_70">
<path id="Vector_20" d="M26.1156 25.7865C26.0344 25.7865 25.9575 25.7383 25.9247 25.6586C25.8814 25.5533 25.9317 25.4327 26.0372 25.3894L28.2923 24.4626C28.3975 24.4193 28.5182 24.4695 28.5615 24.5751C28.6049 24.6804 28.5546 24.801 28.449 24.8443L26.194 25.7711C26.1683 25.7816 26.1417 25.7865 26.1156 25.7865Z" fill="#939598"/>
</g>
</g>
</g>
<g id="Group_71">
<g id="Group_72">
<g id="Group_73">
<path id="Vector_21" d="M28.4022 28.168C28.3814 28.168 28.36 28.1648 28.3392 28.1581L26.0211 27.415C25.9126 27.3803 25.8528 27.2641 25.8876 27.1555C25.9225 27.0469 26.0391 26.9875 26.1471 27.022L28.4652 27.7651C28.5738 27.7998 28.6336 27.916 28.5987 28.0246C28.5706 28.1121 28.4896 28.168 28.4022 28.168Z" fill="#939598"/>
</g>
</g>
</g>
</g>
<g id="Group_74">
<g id="Group_75">
<g id="Group_76">
<path id="Vector_22" d="M29.4046 26.5138H27.0498C26.9358 26.5138 26.8435 26.4214 26.8435 26.3076C26.8435 26.1938 26.9359 26.1013 27.0498 26.1013H29.4046C29.5186 26.1013 29.6108 26.1938 29.6108 26.3076C29.6108 26.4214 29.5184 26.5138 29.4046 26.5138Z" fill="#939598"/>
</g>
</g>
</g>
</g>
</g>
<g id="Group_77">
<g id="Group_78">
<g id="Group_79">
<g id="Group_80">
<path id="Vector_23" d="M23.5504 26.7911L23.0223 25.9411C22.8031 25.5884 23.0568 25.1324 23.4719 25.1324H24.5284C24.9436 25.1324 25.1973 25.5886 24.9781 25.9411L24.4499 26.7911C24.2425 27.1244 23.7576 27.1244 23.5504 26.7911Z" fill="#F2AD97"/>
</g>
</g>
</g>
</g>
<g id="Group_81">
<g id="Group_82">
<g id="Group_83">
<path id="Vector_24" d="M24.6348 25.1428C24.661 25.2681 24.6423 25.4046 24.5654 25.5285L24.0372 26.3784C23.903 26.5943 23.6523 26.6704 23.4359 26.6064L23.5507 26.7911C23.7579 27.1243 24.2427 27.1243 24.4499 26.7911L24.9781 25.9412C25.1776 25.6198 24.9847 25.2126 24.6348 25.1428Z" fill="#E59076"/>
</g>
</g>
</g>
</g>
</g>
</g>
</g>
</svg>
