<svg width="48" height="48" viewBox="0 0 48 48" fill="none" xmlns="http://www.w3.org/2000/svg">
<g id="pawprint 1" clip-path="url(#clip0_1_4)">
<path id="Vector" d="M31.9968 25.4392C29.8437 22.0697 26.1768 20.0577 22.1875 20.0577C18.1982 20.0577 14.5313 22.0697 12.3785 25.4392L7.19043 33.5585C6.32964 34.9054 5.93246 36.4618 6.04161 38.0581C6.15076 39.6548 6.75638 41.1416 7.79277 42.3589C8.82988 43.5751 10.2003 44.4064 11.7558 44.7631C13.3113 45.1197 14.9058 44.9674 16.3667 44.3232L16.4646 44.2797C20.1406 42.691 24.3413 42.7057 28.0079 44.3232C28.9537 44.7404 29.9558 44.9513 30.967 44.9513C31.5168 44.9513 32.0698 44.8887 32.6178 44.7634C34.1732 44.4071 35.5436 43.5758 36.5811 42.3592C37.6179 41.1431 38.2239 39.6559 38.3334 38.0588C38.4429 36.4618 38.0457 34.9058 37.1849 33.5581L31.9968 25.4392Z" fill="#FFDC26"/>
<path id="Vector_2" d="M8.58784 25.4286C10.1313 24.8339 11.3038 23.5862 11.8894 21.9152C12.4468 20.3251 12.4012 18.5299 11.7605 16.86C11.1195 15.1912 9.9535 13.8289 8.47723 13.0236C6.92649 12.178 5.22279 12.0403 3.68191 12.6361C0.581886 13.8318 -0.840721 17.6748 0.511066 21.2047C1.59089 24.0143 4.10938 25.7878 6.65562 25.7878C7.30578 25.7878 7.95776 25.6721 8.58784 25.4286Z" fill="#FFDC26"/>
<path id="Vector_3" d="M18.6545 19.0675C22.5299 19.0675 25.6829 15.464 25.6829 11.0347C25.6829 6.60425 22.5299 3.00001 18.6545 3.00001C14.7795 3.00001 11.6269 6.60425 11.6269 11.0347C11.6269 15.464 14.7795 19.0675 18.6545 19.0675Z" fill="#FFDC26"/>
<path id="Vector_4" d="M30.7925 21.041H30.7929C31.389 21.2395 31.9972 21.3343 32.6028 21.3343C35.429 21.3343 38.1833 19.2708 39.2343 16.0994C39.8396 14.2738 39.7998 12.3435 39.1223 10.6644C38.4133 8.90662 37.0995 7.63074 35.4225 7.07154C33.745 6.51233 31.9311 6.74561 30.3143 7.72779C28.7697 8.66602 27.5862 10.1884 26.9817 12.0139C25.7059 15.865 27.4154 19.9145 30.7925 21.041Z" fill="#FFDC26"/>
<path id="Vector_5" d="M45.5935 20.1035L45.5924 20.1024C42.9199 18.122 38.9229 18.9803 36.6819 22.017C34.443 25.0551 34.7931 29.1394 37.4616 31.1213C38.4349 31.8446 39.5848 32.1903 40.7617 32.1903C42.8129 32.1903 44.947 31.14 46.3736 29.2086C48.6121 26.1705 48.2624 22.0862 45.5935 20.1035Z" fill="#FFDC26"/>
</g>
<defs>
<clipPath id="clip0_1_4">
<rect width="47.8481" height="48" fill="white"/>
</clipPath>
</defs>
</svg>
