<svg width="48" height="48" viewBox="0 0 48 48" fill="none" xmlns="http://www.w3.org/2000/svg">
<g id="fi_6363517">
<g id="Group">
<path id="Vector" d="M12.6797 7.83292L15.6415 12.783L18.8181 14.9401L19.2149 14.5509L16.8648 7.68667L15.2873 4.25448L13.9995 3.72864L12.2611 3.89767L11.6843 5.60392L11.6429 5.76779L12.6797 7.83292Z" fill="#FF9BA1"/>
<path id="Vector_2" d="M18.7685 14.604C15.3118 11.6395 13.1115 7.97563 11.8639 5.38691V5.07275L11.6844 5.60394L11.1075 7.88966V8.84C12.1243 10.9495 13.9171 13.935 16.734 16.3509C17.0161 16.5979 17.3799 16.3509 17.3799 16.3509L19.0319 14.7305C18.9434 14.7154 18.853 14.6779 18.7685 14.604Z" fill="#FF7F87"/>
<path id="Vector_3" d="M36.2371 5.10489L35.5176 3.87348L33.7743 3.72864L32.1807 5.37048L29.9594 10.1029L28.8818 14.6522L30.9493 16.3508H31.266C34.0829 13.935 35.8758 10.9495 36.8924 8.83998L37.2028 7.97814L36.2371 5.10489Z" fill="#FF9BA1"/>
<path id="Vector_4" d="M35.7636 5.55248C35.891 5.34201 36.0227 5.14813 36.1572 4.96832L35.5176 3.8736L33.7743 3.72876L32.1807 5.3706L29.9594 10.103L28.8818 14.6523L30.9493 16.3509H31.266C31.3906 16.244 31.5125 16.1357 31.633 16.0267C32.6612 12.854 34.4079 7.79245 35.7636 5.55248Z" fill="#FF7F87"/>
<path id="Vector_5" d="M37.7254 0.29248H36.3806L33.7018 3.18936L33.0422 4.34829L33.4505 4.75957C33.526 4.68561 33.602 4.61557 33.6785 4.55089C34.3988 3.94179 35.5148 4.32017 35.724 5.24004C36.4252 8.32367 37.994 12.1657 41.4765 15.0217C42.4366 15.8092 43.8916 15.1951 44.005 13.9584C44.3853 9.80773 44.2127 1.90442 37.7254 0.29248Z" fill="#E39B74"/>
<g id="Group_2">
<path id="Vector_6" d="M33.4506 4.75969C34.5062 2.69147 35.9012 0.958125 37.7255 0.2925C36.9656 0.103687 36.1203 0 35.1778 0C29.6981 0 27.3901 8.89716 26.5952 13.1921L26.9132 14.0385L28.5513 14.7387L29.2689 14.5508C29.9786 12.3071 31.5176 7.665 32.6787 5.7465C32.9204 5.34694 33.1817 5.02313 33.4506 4.75969Z" fill="#DD8858"/>
</g>
<path id="Vector_7" d="M14.4819 0.29248H13.0662L9.13466 3.12495C9.13466 3.12495 8.38194 6.40864 8.08419 6.98811C7.78644 7.56757 7.75419 10.7547 7.72203 11.0766C7.68988 11.3986 8.16125 13.4615 8.16125 13.4615C10.5208 10.8603 11.6959 7.79089 12.276 5.24004C12.4852 4.32026 13.6012 3.94179 14.3215 4.55089C14.6701 4.84573 15.0117 5.2347 15.3214 5.74639C16.4825 7.66489 18.0215 12.307 18.7312 14.5507H19.4188L21.0568 13.7245L21.4048 13.192C20.6953 9.35904 18.7806 1.86101 14.4819 0.29248Z" fill="#E39B74"/>
<g id="Group_3">
<path id="Vector_8" d="M14.4819 0.2925C13.9638 0.1035 13.4114 0 12.8221 0C3.83373 0 3.5701 9.32166 3.99498 13.9584C4.10832 15.1951 5.56332 15.8092 6.52351 15.0217C7.1252 14.5283 7.66848 14.0049 8.16123 13.4617C7.84473 9.207 8.24467 1.84228 14.4819 0.2925Z" fill="#DD8858"/>
</g>
<path id="Vector_9" d="M26.4297 13.1412H24.4785L20.4704 16.4605L18.3456 20.7607C18.3456 20.7607 16.6623 26.5623 16.1875 27.7388L22.097 30.4187H26.2651L33.8465 26.8938L35.5174 25.7937C34.4619 19.4439 30.9107 14.4795 26.4297 13.1412Z" fill="#EAAE8E"/>
<g id="Group_4">
<g id="Group_5">
<path id="Vector_10" d="M19.3076 25.592C18.8965 25.592 18.5632 25.2587 18.5632 24.8476V22.7386C18.5632 22.3275 18.8965 21.9943 19.3076 21.9943C19.7187 21.9943 20.052 22.3275 20.052 22.7386V24.8476C20.052 25.2587 19.7187 25.592 19.3076 25.592Z" fill="#544E55"/>
</g>
<g id="Group_6">
<path id="Vector_11" d="M28.6925 25.592C28.2814 25.592 27.9481 25.2587 27.9481 24.8476V22.7386C27.9481 22.3275 28.2813 21.9943 28.6925 21.9943C29.1037 21.9943 29.4369 22.3275 29.4369 22.7386V24.8476C29.4368 25.2587 29.1036 25.592 28.6925 25.592Z" fill="#544E55"/>
</g>
</g>
<path id="Vector_12" d="M13.9173 26.7093C14.8297 26.0225 15.7714 25.3055 15.7714 25.3055H17.4295C18.5824 19.1906 22.0642 14.4451 26.4297 13.1413C25.6454 12.9071 24.8328 12.783 24 12.783C18.4084 12.783 13.7228 18.3324 12.4823 25.7938L13.1303 26.3524L13.9173 26.7093Z" fill="#E39B74"/>
<path id="Vector_13" d="M37.2497 45.6993C35.6742 42.2236 33.7358 39.3738 31.5485 37.368L30.6057 36.9983L29.2914 37.368C29.2914 37.368 26.4584 39.2136 26.3618 39.2136C26.2652 39.2136 21.4363 39.117 21.4363 39.117L19.215 38.1558L15.5207 42.9429L14.4584 46.2237L14.9896 47.5516C14.9896 47.5516 15.2948 47.7524 15.6644 48H19.1404L20.245 47.2941H27.8103L28.8593 48H35.771C36.9543 48 37.7383 46.7769 37.2497 45.6993Z" fill="#E39B74"/>
<g id="Group_7">
<path id="Vector_14" d="M15.0799 45.6993C16.4048 42.7765 17.9872 40.2986 19.7575 38.3907L17.3943 37.368L16.4513 37.3681C14.2641 39.3739 12.3258 42.2237 10.7502 45.6993C10.2617 46.7769 11.0456 48 12.2287 48H16.5584C15.3753 48 14.5913 46.7769 15.0799 45.6993Z" fill="#DD8858"/>
</g>
<path id="Vector_15" d="M31.6381 25.0201C29.9442 25.0201 28.3768 25.4384 27.0938 26.1474L26.4532 26.6663H21.5517L20.7992 26.1474C19.7364 25.56 18.4781 25.1731 17.1147 25.0573L15.5206 25.4107L13.2751 27.7528C13.2751 27.7528 12.4619 31.302 12.4822 31.3745C12.5024 31.447 14.2692 34.803 14.7983 35.2619C15.3274 35.7206 19.1665 37.1935 19.1665 37.1935C19.1665 37.1935 22.1302 38.1834 22.097 38.3524C22.0638 38.5215 23.9998 39.5355 23.9998 39.5355L25.8079 39.741C27.1689 39.4969 28.4014 38.9919 29.4126 38.2962C30.32 37.672 31.3715 37.2987 32.4696 37.214C36.5729 36.8976 39.4954 34.1254 39.4954 31.1309C39.4955 27.756 35.9776 25.0201 31.6381 25.0201Z" fill="#FEE6C1"/>
<g id="Group_8">
<path id="Vector_16" d="M22.1396 37.9207C21.3576 37.2276 20.4248 36.7835 19.4293 36.6226C15.7671 36.0309 13.2591 33.0847 13.4822 30.0051C13.6396 27.8332 15.0749 26.0183 17.1149 25.0571C16.8325 25.0331 16.5458 25.0199 16.2551 25.0199C11.9156 25.0199 8.39758 27.7557 8.39758 31.1306C8.39758 34.1736 11.3696 36.891 15.4158 37.2116C16.5156 37.2988 17.5695 37.6689 18.4782 38.2945C19.9343 39.2968 21.849 39.9053 23.9465 39.9053C24.5867 39.9053 25.2097 39.848 25.808 39.7407C24.3858 39.4373 23.1243 38.7936 22.1396 37.9207Z" fill="#FCD79B"/>
</g>
<g id="Group_9">
<path id="Vector_17" d="M3.46715 32.4536C3.20353 32.1527 3.23371 31.695 3.53456 31.4314C8.46543 27.1103 15.1986 28.2621 15.4827 28.3132C15.8765 28.3841 16.1382 28.7607 16.0673 29.1543C15.9966 29.5478 15.6199 29.8096 15.227 29.739C15.1611 29.7274 8.88515 28.6685 4.48931 32.5209C4.18865 32.7845 3.73096 32.7546 3.46715 32.4536Z" fill="#FCCC80"/>
</g>
<g id="Group_10">
<path id="Vector_18" d="M7.62137 36.879C7.28715 36.6591 7.19434 36.2101 7.41409 35.8757C10.0034 31.9382 14.7125 31.0039 14.9117 30.9661C15.3049 30.8913 15.6839 31.1495 15.7586 31.5425C15.8332 31.9352 15.5757 32.314 15.1832 32.3892C15.1404 32.3974 10.8699 33.2571 8.62459 36.6717C8.40503 37.0055 7.95606 37.099 7.62137 36.879Z" fill="#FCCC80"/>
</g>
<g id="Group_11">
<path id="Vector_19" d="M43.5106 32.521C39.0989 28.6548 32.8364 29.7278 32.7737 29.7391C32.3804 29.8102 32.0034 29.5482 31.9326 29.1545C31.8617 28.7607 32.1235 28.3841 32.5172 28.3133C32.8014 28.2623 39.5345 27.1103 44.4654 31.4316C44.7662 31.6952 44.7964 32.1529 44.5328 32.4537C44.2691 32.7545 43.8116 32.7848 43.5106 32.521Z" fill="#FCCC80"/>
</g>
<g id="Group_12">
<path id="Vector_20" d="M39.3754 36.6717C37.1197 33.2413 32.8606 32.3975 32.8178 32.3894C32.4248 32.3148 32.1667 31.9356 32.2414 31.5426C32.316 31.1496 32.695 30.8917 33.0882 30.9662C33.2875 31.004 37.9966 31.9383 40.5859 35.8758C40.8057 36.21 40.7129 36.6592 40.3786 36.879C40.0446 37.0987 39.5953 37.0062 39.3754 36.6717Z" fill="#FCCC80"/>
</g>
<g id="Group_13">
<path id="Vector_21" d="M24 30.9812C24 30.9812 23.6572 32.901 22.0972 33.4816L22.2403 35.2864C22.2712 35.6755 22.5959 35.9754 22.9861 35.9754H25.0137C25.404 35.9754 25.7287 35.6754 25.7595 35.2864L25.9027 33.4816C24.3429 32.901 24 30.9812 24 30.9812Z" fill="#FEF0DB"/>
</g>
<path id="Vector_22" d="M30.077 30.6118C29.6934 30.504 29.2943 30.7279 29.1839 31.1107C29.1626 31.1846 28.6413 32.9223 26.8562 32.9223C25.2593 32.9223 24.7999 31.2412 24.7243 30.9068V28.6704C24.7243 28.2703 24.4 27.946 24 27.946C23.6 27.946 23.2757 28.2703 23.2757 28.6704V30.9099C23.2024 31.2465 22.7564 32.9223 21.1438 32.9223C19.3628 32.9223 18.8397 31.1922 18.8163 31.1112C18.7087 30.7276 18.3113 30.5027 17.9268 30.6085C17.5411 30.7147 17.3144 31.1134 17.4205 31.4991C17.6937 32.4924 18.8236 34.371 21.1439 34.371C22.5207 34.371 23.4358 33.6466 24.0002 32.8188C24.5646 33.6465 25.4796 34.371 26.8564 34.371C29.1767 34.371 30.3066 32.4924 30.5798 31.4991C30.6852 31.1149 30.4603 30.7198 30.077 30.6118Z" fill="#FCCC80"/>
<path id="Vector_23" d="M23.1237 26.6663L24.4946 29.3318H25.4565C26.4965 28.6738 27.2092 27.4328 27.2092 26.5519C27.2092 25.3439 25.8703 25.2557 24.1831 25.2511L23.1237 26.6663Z" fill="#FF9BA1"/>
<path id="Vector_24" d="M23.7041 26.5519C23.7041 25.6709 24.4166 25.3858 25.4566 25.2941C25.0194 25.2555 24.5246 25.2509 24 25.2509C22.2276 25.2509 20.7908 25.3005 20.7908 26.5519C20.7908 27.8033 22.2276 29.7827 24 29.7827C24.5246 29.7827 25.0194 29.6084 25.4566 29.3318C24.4166 28.6739 23.7041 27.4329 23.7041 26.5519Z" fill="#FF636E"/>
<path id="Vector_25" d="M26.1648 43.8585H25.6858L23.5368 46.4168L23.0781 47.455L23.4702 47.9999H28.8595C28.0611 46.1308 27.1503 44.7111 26.1648 43.8585Z" fill="#FEF0DB"/>
<path id="Vector_26" d="M26.1649 43.8585C25.4756 43.2621 24.7497 42.9429 24 42.9429C22.1788 42.9429 20.4973 44.8233 19.1405 48H23.4702C24.2685 46.1308 25.1794 44.7111 26.1649 43.8585Z" fill="#FEE6C1"/>
</g>
</g>
</svg>
